<svg width="30" height="30" viewBox="0 0 30 30" fill="none" xmlns="http://www.w3.org/2000/svg">
<path fill-rule="evenodd" clip-rule="evenodd" d="M15 6.25C14.5755 5.76105 14.0807 5.33411 13.5348 4.978C12.3283 4.19105 10.8724 3.75 9.375 3.75C5.525 3.75 2.5 6.7173 2.5 10.4939C2.5 11.8358 2.81968 13.11 3.36729 14.3223C5.06575 18.0857 8.9572 21.2616 12.3069 23.9954C13.2712 24.7824 14.1907 25.5328 15 26.25C15.8093 25.5328 16.7288 24.7824 17.6931 23.9954C21.0427 21.2617 24.9341 18.0858 26.6326 14.3225C27.1803 13.1102 27.5 11.8358 27.5 10.4939C27.5 6.7173 24.475 3.75 20.625 3.75C19.1276 3.75 17.6717 4.19105 16.4652 4.978C15.9193 5.33411 15.4245 5.76105 15 6.25ZM15 22.9624C15.4035 22.628 15.8159 22.2908 16.2277 21.9541C16.5765 21.6689 16.9249 21.3841 17.267 21.1017C18.6363 19.9711 19.9767 18.8225 21.1636 17.6188C22.6325 16.1292 23.7241 14.6954 24.3598 13.2802C24.7791 12.3459 25 11.4204 25 10.4939C25 8.14318 23.1399 6.25 20.625 6.25C19.1395 6.25 17.7531 6.89216 16.8879 7.88889L15 10.0635L13.1121 7.88889C12.2469 6.89216 10.8605 6.25 9.375 6.25C6.86011 6.25 5 8.14318 5 10.4939C5 11.4204 5.22093 12.3459 5.64017 13.2802C6.27587 14.6954 7.36753 16.1292 8.83637 17.6188C10.0233 18.8225 11.3637 19.9711 12.733 21.1017C13.0751 21.3841 13.4235 21.6689 13.7723 21.9541C14.1841 22.2908 14.5965 22.628 15 22.9624Z" fill="black"/>
</svg>
