<svg width="30" height="30" viewBox="0 0 30 30" fill="none" xmlns="http://www.w3.org/2000/svg">
<path d="M15 2.5C11.5538 2.5 8.75 5.30375 8.75 8.75C8.75 12.1962 11.5538 15 15 15C18.4462 15 21.25 12.1962 21.25 8.75C21.25 5.30375 18.4462 2.5 15 2.5ZM15 9C12.9325 9 14 9 15 9C16 9 17.0675 9 15 9ZM26.25 26.25V25C26.25 20.1762 22.3238 16.25 17.5 16.25H12.5C7.675 16.25 3.75 20.1762 3.75 25V26.25H6.25H9.5C12.5846 26.25 10.0538 26.25 13.5 26.25H17.5C20.9462 26.25 17.8953 26.25 22.4348 26.25H23.75H26.25Z" fill="black"/>
</svg>
